<svg xmlns="http://www.w3.org/2000/svg" focusable="false" viewBox="0 0 48 48">
  <defs>
    <mask id="ugjdgyb" fill="#fff">
      <path d="M48 14.0579l-15.5105 6.4253C31.109 17.1546 27.8279 14.8133 24 14.8133c-5.0737 0-9.1867 4.113-9.1867 9.1867s4.113 9.1867 9.1867 9.1867c3.828 0 7.109-2.3413 8.4895-5.6699L48 33.9421V48H0V0h48v14.0579z"></path>
    </mask>
  </defs>
  <g mask="url(#ugjdgyb)">
    <path fill="#0074c1" d="M24 48c-3.3137 0-6.3137-1.3431-8.4853-3.5147-6.6274 0-12-5.3726-12-12C1.3431 30.3137 0 27.3137 0 24c0-3.3137 1.3431-6.3137 3.5147-8.4853 0-6.6274 5.3726-12 12-12C17.6863 1.3431 20.6863 0 24 0c3.3137 0 6.3137 1.3431 8.4853 3.5147 6.6274 0 12 5.3726 12 12C46.6569 17.6863 48 20.6863 48 24c0 3.3137-1.3431 6.3137-3.5147 8.4853 0 6.6274-5.3726 12-12 12C30.3137 46.6569 27.3137 48 24 48z"></path>
    <path fill="#329dd8" d="M44.4853 15.5147c0 3.3137-1.3432 6.3137-3.5147 8.4853 2.1715 2.1716 3.5147 5.1716 3.5147 8.4853C42.3137 34.6569 39.3137 36 36 36c0 3.3137-1.3431 6.3137-3.5147 8.4853-3.3137 0-6.3137-1.3432-8.4853-3.5147-2.1716 2.1715-5.1716 3.5147-8.4853 3.5147C13.3431 42.3137 12 39.3137 12 36c-3.3137 0-6.3137-1.3431-8.4853-3.5147 0-3.3137 1.3432-6.3137 3.5147-8.4853-2.1715-2.1716-3.5147-5.1716-3.5147-8.4853C5.6863 13.3431 8.6863 12 12 12c0-3.3137 1.3431-6.3137 3.5147-8.4853 3.3137 0 6.3137 1.3432 8.4853 3.5147 2.1716-2.1715 5.1716-3.5147 8.4853-3.5147C34.6569 5.6863 36 8.6863 36 12c3.3137 0 6.3137 1.3431 8.4853 3.5147z"></path>
    <path fill="#5ebbef" d="M24 24c6.6274 0 12 5.3726 12 12-3.3137 0-6.3137-1.3431-8.4853-3.5147 0 3.3137-1.3431 6.3137-3.5147 8.4853-2.1716-2.1716-3.5147-5.1716-3.5147-8.4853C18.3137 34.6569 15.3137 36 12 36c0-3.3137 1.3431-6.3137 3.5147-8.4853-3.3137 0-6.3137-1.3431-8.4853-3.5147 2.1716-2.1716 5.1716-3.5147 8.4853-3.5147C13.3431 18.3137 12 15.3137 12 12c3.3137 0 6.3137 1.3431 8.4853 3.5147 0-3.3137 1.3431-6.3137 3.5147-8.4853 2.1716 2.1716 3.5147 5.1716 3.5147 8.4853C29.6863 13.3431 32.6863 12 36 12c0 6.6274-5.3726 12-12 12z"></path>
  </g>
</svg>